Coordinates
version=1
nRows=19
nColumns=24
inDegrees=yes

Units are S.I. units (second, meters, Newtons, ...)
Angles are in degrees.

endheader
time	pelvis_tilt	pelvis_list	pelvis_rotation	pelvis_tx	pelvis_ty	pelvis_tz	hip_flexion_r	hip_adduction_r	hip_rotation_r	knee_angle_r	ankle_angle_r	subtalar_angle_r	mtp_angle_r	hip_flexion_l	hip_adduction_l	hip_rotation_l	knee_angle_l	ankle_angle_l	subtalar_angle_l	mtp_angle_l	lumbar_extension	lumbar_bending	lumbar_rotation
      3.74500000	     -9.91935095	     13.39377794	     -1.27653347	     -0.29343143	     -0.04843137	      0.63221973	     20.33537235	    -17.22352117	      3.27793812	    -66.71499996	    -33.22528563	     -2.22363631	     51.77589392	     31.24104726	     15.11036797	      0.22887586	    -32.24629225	     10.53689763	     -4.10398434	    -13.01136949	      9.35633350	    -15.16231195	     -0.24785581
      3.75000000	     -9.81787227	     13.29905171	     -1.08744992	     -0.28605398	     -0.04673368	      0.63156848	     21.20195298	    -17.21190597	      3.05575052	    -67.80393181	    -32.11559394	     -2.77216343	     50.76950514	     30.29554248	     15.23575223	      0.68316057	    -31.72702079	     10.78173301	     -4.14950166	    -12.93144939	      9.31870375	    -15.09071444	     -0.59994560
      3.75500000	     -9.71328848	     13.18211638	     -0.93229236	     -0.27869085	     -0.04502160	      0.63099925	     22.05386094	    -17.15517915	      2.88523818	    -68.78863467	    -31.03951724	     -3.20730160	     50.06610467	     29.35009478	     15.29920508	      1.07593617	    -31.21090228	     11.04171259	     -4.07509091	    -12.71448716	      9.28566805	    -14.99275615	     -0.93262924
      3.76000000	     -9.62601081	     13.08500805	     -0.77621036	     -0.27136784	     -0.04332540	      0.63040075	     22.91699675	    -17.12460016	      2.72890237	    -69.66761360	    -30.13374656	     -3.71171871	     49.81984454	     28.41736127	     15.38231921	      1.49076591	    -30.67151706	     11.26436392	     -4.01738457	    -12.54814301	      9.26820447	    -14.91137827	     -1.26433375
      3.76500000	     -9.53286678	     12.90343080	     -0.54977761	     -0.26405573	     -0.04157223	      0.62963768	     23.71450122	    -17.04215377	      2.44826451	    -70.45588710	    -29.35033401	     -4.26645478	     49.14912262	     27.45260756	     15.44350028	      2.10102489	    -30.11200522	     11.36961581	     -4.18235804	    -12.35538389	      9.21833112	    -14.74062738	     -1.65416315
      3.77000000	     -9.44235751	     12.71385548	     -0.36942183	     -0.25677434	     -0.03984759	      0.62895950	     24.51944977	    -16.91688646	      2.22799148	    -71.16855727	    -28.68550663	     -4.81575385	     48.43194128	     26.49793882	     15.46008140	      2.66003902	    -29.54302348	     11.46510150	     -4.37195971	    -12.19072530	      9.17891477	    -14.55202945	     -1.98610144
      3.77500000	     -9.36777164	     12.51698996	     -0.18891436	     -0.24953431	     -0.03816270	      0.62828307	     25.32628500	    -16.77457534	      2.01937139	    -71.79419316	    -28.15079272	     -5.39107444	     47.81462283	     25.56348254	     15.46119831	      3.22169782	    -28.96532568	     11.54033515	     -4.62659351	    -12.14549535	      9.15131677	    -14.35472151	     -2.31163449
      3.78000000	     -9.29823943	     12.31325495	      0.00571385	     -0.24231989	     -0.03651152	      0.62758979	     26.11544066	    -16.62680355	      1.79248769	    -72.33653501	    -27.74188603	     -6.03615526	     47.19774549	     24.63369840	     15.45680304	      3.81211642	    -28.38093890	     11.60306453	     -4.94968064	    -12.23707981	      9.11993194	    -14.15207872	     -2.65410065
      3.78500000	     -9.23242955	     12.10238015	      0.20915932	     -0.23513605	     -0.03489732	      0.62687861	     26.88663498	    -16.47191955	      1.54976948	    -72.79878591	    -27.42959296	     -6.74721555	     46.54396814	     23.70808191	     15.44437172	      4.42849279	    -27.79258108	     11.66288228	     -5.32452706	    -12.46723332	      9.08437178	    -13.93962659	     -3.00639019
      3.79000000	     -9.12326514	     11.88468486	      0.41803780	     -0.22799245	     -0.03332276	      0.62624970	     27.59319553	    -16.30580848	      1.26935449	    -73.22554600	    -27.08025747	     -7.45570500	     45.22843452	     22.75000447	     15.40621193	      5.04066619	    -27.25333479	     12.00120145	     -5.48930247	    -13.24423024	      8.98855983	    -13.73219939	     -3.36394800
      3.79500000	     -9.05584495	     11.66240849	      0.63513727	     -0.22088883	     -0.03179882	      0.62549689	     28.31999503	    -16.14299079	      0.99476218	    -73.53734268	    -26.87054099	     -8.25953781	     44.44021599	     21.83087045	     15.38350545	      5.72787572	    -26.69497247	     12.26571717	     -5.85106571	    -14.24487547	      8.93267512	    -13.50213046	     -3.73125680
      3.80000000	     -9.03266305	     11.49496448	      0.84420163	     -0.21384321	     -0.03040917	      0.62471664	     29.09399765	    -16.03562360	      0.76474872	    -73.77767417	    -26.67118953	     -9.10040804	     44.00956882	     20.96643149	     15.40581790	      6.36444015	    -26.10014998	     12.24891928	     -6.37610172	    -14.69480683	      8.92019939	    -13.32255608	     -4.09292593
      3.80500000	     -8.98466924	     11.30198969	      1.01762084	     -0.20677017	     -0.02904145	      0.62399767	     29.83292049	    -15.87504545	      0.54551675	    -73.98878295	    -26.37610876	     -9.78512287	     42.66874958	     20.07479344	     15.38972431	      7.05642506	    -25.55543591	     12.75140454	     -6.68623229	    -16.48092481	      8.89085229	    -13.10636414	     -4.39786488
      3.81000000	     -8.91214425	     11.06685895	      1.23084548	     -0.19982379	     -0.02767593	      0.62325128	     30.49072805	    -15.69695564	      0.25978485	    -74.05305486	    -26.24193277	    -10.69404411	     42.29401634	     19.16647615	     15.31943273	      7.74709721	    -24.98156107	     12.75367432	     -7.09348182	    -16.73984508	      8.80012632	    -12.85527907	     -4.78246484
      3.81500000	     -8.83355355	     10.85437310	      1.43167830	     -0.19283815	     -0.02636159	      0.62254691	     31.12926379	    -15.53965904	     -0.02476065	    -74.07081091	    -26.03961934	    -11.54129935	     41.46878487	     18.24144016	     15.25525833	      8.43308736	    -24.38558033	     12.78662296	     -7.49286327	    -17.14249768	      8.71407948	    -12.62491216	     -5.12738107
      3.82000000	     -8.73124253	     10.60966399	      1.55957235	     -0.18595095	     -0.02514428	      0.62194891	     31.75538430	    -15.29485207	     -0.24694998	    -74.06831151	    -25.64508568	    -12.16118270	     40.00871021	     17.33581433	     15.12374944	      9.03593846	    -23.85467345	     13.05519019	     -7.81168996	    -18.05137182	      8.59256413	    -12.34330599	     -5.43324626
      3.82500000	     -8.64239665	     10.39263696	      1.72081759	     -0.17909825	     -0.02400803	      0.62127388	     32.36939748	    -15.11294136	     -0.49582616	    -73.97866908	    -25.29119489	    -12.82441559	     38.93096402	     16.43609174	     15.03345290	      9.71700377	    -23.30598812	     13.28964842	     -8.22965498	    -19.11794841	      8.47712995	    -12.09093653	     -5.75721757
      3.83000000	     -8.62103815	     10.20285724	      1.89015233	     -0.17232299	     -0.02305316	      0.62055009	     33.05042208	    -14.96597899	     -0.71403460	    -73.81041388	    -25.00112933	    -13.52506557	     38.38281015	     15.62556675	     14.97033016	     10.39541252	    -22.74862101	     13.23837139	     -8.82934039	    -19.55352441	      8.42067398	    -11.86226735	     -6.09029052
      3.83500000	     -8.48627902	      9.96640971	      1.98073746	     -0.16548369	     -0.02202712	      0.62005183	     33.58834363	    -14.71835753	     -0.92833559	    -73.61304914	    -24.44660831	    -13.92003133	     36.65882957	     14.70616681	     14.80749185	     10.98519550	    -22.23204868	     13.64804146	     -9.14997305	    -20.98633319	      8.26063319	    -11.57841992	     -6.33640735
